{"title":"Little Mix ft.Jason Derulo - Secret Love Song (2016 RnB)","uid":13491676,"size":71347608,"categoryP":"video","categoryS":"music_videos","magnet":"?xt=urn:btih:c9ae9d25043d4660367aae2d1fcd6e1aee7f830d&amp;dn=Little+Mix+ft.Jason+Derulo+-+Secret+Love+Song+%282016+RnB%29&amp;tr=udp%3A%2F%2Ftracker.leechers-paradise.org%3A6969&amp;tr=udp%3A%2F%2Fzer0day.ch%3A1337&amp;tr=udp%3A%2F%2Fopen.demonii.com%3A1337&amp;tr=udp%3A%2F%2Ftracker.coppersurfer.tk%3A6969&amp;tr=udp%3A%2F%2Fexodus.desync.com%3A6969","seeders":39,"leechers":2,"uploader":"MeRaDil","files":1,"time":1455133601,"description":"LITTLE MIX ft.JASON DERULO - SECRET LOVE SONG\r\n\r\n \nhttp://gifyu.com/images/SecretLove-1.png\r\n \nhttp://gifyu.com/images/SecretLove.png\r\n\r\n\r\nMEDIAINFO\r\nGeneral\r\nLittle Mix ft. Jason Derulo - Secret Love Song\r\nFormat                                   : MPEG-4\r\nFormat profile                           : Base Media\r\nCodec ID                                 : isom\r\nFile size                                : 68.0 MiB\r\nDuration                                 : 4mn 20s\r\nOverall bit rate                         : 2 191 Kbps\r\nMusicVid name                            : Secret Love Song\r\nAlbum                                    : Get Weird\r\nPerformer                                : Little Mix ft. Jason Derulo\r\nGenre                                    : RnB\r\nContentType                              : Music Video\r\nRecorded date                            : 2016\r\nWriting application                      : Lavf56.32.100 / MeRaDil\r\nCover                                    : Yes\r\nArtist url                               : http://www.little-mix.com/\r\nReleasetime                              : UK . february 3 . 2016\r\n\r\nVideo\r\nID                                       : 1\r\nFormat                                   : AVC\r\nFormat/Info                              : Advanced Video Codec\r\nFormat profile                           :   \r\nFormat settings, CABAC                   : Yes\r\nFormat settings, ReFrames                : 3 frames\r\nCodec ID                                 : avc1\r\nCodec ID/Info                            : Advanced Video Coding\r\nDuration                                 : 4mn 20s\r\nBit rate                                 : 1 915 Kbps\r\nWidth                                    : 1 920 pixels\r\nHeight                                   : 1 080 pixels\r\nDisplay aspect ratio                     : 16:9\r\nFrame rate mode                          : Constant\r\nFrame rate                               : 25.000 fps\r\nColor space                              : YUV\r\nChroma subsampling                       : 4:2:0\r\nBit depth                                : 8 bits\r\nScan type                                : Progressive\r\nBits/(Pixel*Frame)                       : 0.037\r\nStream size                              : 59.4 MiB (87%)\r\nColor primaries                          : BT.709\r\nTransfer characteristics                 : BT.709\r\nMatrix coefficients                      : BT.709\r\n\r\nAudio\r\nID                                       : 2\r\nFormat                                   : AAC\r\nFormat/Info                              : Advanced Audio Codec\r\nFormat profile                           : LC\r\nCodec ID                                 : 40\r\nDuration                                 : 4mn 20s\r\nBit rate mode                            : Constant\r\nBit rate                                 : 256 Kbps\r\nChannel(s)                               : 2 channels\r\nChannel positions                        : Front: L R\r\nSampling rate                            : 44.1 KHz\r\nCompression mode                         : Lossy\r\nStream size                              : 7.95 MiB (12%)","torrent":{"xt":"urn:btih:c9ae9d25043d4660367aae2d1fcd6e1aee7f830d","amp;dn":"Little+Mix+ft.Jason+Derulo+-+Secret+Love+Song+%282016+RnB%29","amp;tr":["udp%3A%2F%2Ftracker.leechers-paradise.org%3A6969","udp%3A%2F%2Fzer0day.ch%3A1337","udp%3A%2F%2Fopen.demonii.com%3A1337","udp%3A%2F%2Ftracker.coppersurfer.tk%3A6969","udp%3A%2F%2Fexodus.desync.com%3A6969"],"infoHash":"c9ae9d25043d4660367aae2d1fcd6e1aee7f830d","infoHashBuffer":{"type":"Buffer","data":[201,174,157,37,4,61,70,96,54,122,174,45,31,205,110,26,238,127,131,13]},"announce":[],"urlList":[]}}